<?xml version="1.0" encoding="utf-8"?>
<!-- Generator: Adobe Illustrator 19.1.0, SVG Export Plug-In . SVG Version: 6.00 Build 0)  -->
<svg version="1.1" xmlns="http://www.w3.org/2000/svg" xmlns:xlink="http://www.w3.org/1999/xlink" x="0px" y="0px"
	 viewBox="0 0 113.549 51.021" style="enable-background:new 0 0 113.549 51.021;" xml:space="preserve">
<style type="text/css">
	.st0{fill:none;}
	.st1{fill:#FFFFFF;}
	.st2{fill:#FFFFFF;enable-background:new    ;}
</style>
<g id="Layer_3">
</g>
<g id="Layer_2">
</g>
<g id="Reversed">
	<path class="st0" d="M13.003,15.45c-0.376,0-1.435,0.014-2.778,0.034c-3.624,0.054-9.359,0.153-9.381,0.153l-0.042,4.66
		l-0.001,0.126c0.105,1.048,0.569,3.105,2.244,5.285C3.12,25.805,3.193,25.902,3.272,26c0,0,1.176,1.337,2.949,2.673
		c0.88,0.664,2.688,1.897,3.543,2.478c0.289,0.195,0.469,0.316,0.469,0.316c1.561,0.949,2.582,1.42,2.858,1.543
		c0.278-0.126,1.312-0.613,2.896-1.58c0,0,0.157-0.107,0.418-0.287c0.696-0.481,2.157-1.494,3.525-2.47
		c1.88-1.339,2.979-2.652,2.979-2.652c0.085-0.103,0.163-0.206,0.242-0.309c1.678-2.18,2.104-4.246,2.204-5.3l0.001-0.117
		l0.046-4.658c-0.024,0-5.724-0.098-9.434-0.152C14.538,15.464,13.401,15.45,13.003,15.45z"/>
	<path class="st0" d="M25.377,15.059L25.319,1.981c-0.007-0.122-0.068-0.413-0.5-0.479c-0.023-0.005-2.643-0.268-11.633-0.268
		h-0.134c-8.17,0-11.04,0.154-11.659,0.27C1.105,1.553,0.926,1.762,0.89,2.014c0,0-0.031,7.807-0.052,13.047
		c1.159-0.051,4.601-0.164,12.362-0.164C20.81,14.898,24.198,15.007,25.377,15.059z"/>
	<path class="st0" d="M24.767,19.83c-0.087,0.344-0.389,0.6-0.75,0.6c-0.346,0-0.635-0.235-0.744-0.577
		c-0.095,0.333-0.39,0.577-0.743,0.577c-0.346,0-0.634-0.235-0.744-0.576c-0.095,0.332-0.39,0.576-0.743,0.576
		c-0.345,0-0.634-0.235-0.744-0.577c-0.095,0.333-0.39,0.577-0.743,0.577c-0.345,0-0.634-0.235-0.743-0.577
		c-0.095,0.333-0.39,0.577-0.744,0.577c-0.345,0-0.634-0.235-0.743-0.577c-0.095,0.333-0.39,0.577-0.742,0.577
		c-0.435,0-0.789-0.354-0.789-0.788c0-0.345,0.235-0.633,0.577-0.743c-0.333-0.095-0.577-0.39-0.577-0.743
		c0-0.345,0.235-0.633,0.576-0.743c-0.332-0.095-0.576-0.39-0.576-0.743c0-0.348,0.239-0.639,0.586-0.746
		c-0.203-0.057-0.385-0.178-0.488-0.366l-0.04-0.073c-1.375-0.02-2.463-0.033-2.85-0.033c-0.376,0-1.435,0.014-2.778,0.034
		c-3.624,0.054-9.359,0.153-9.381,0.153l-0.042,4.66l-0.001,0.126c0.105,1.048,0.569,3.105,2.244,5.285
		C3.12,25.805,3.193,25.902,3.272,26c0,0,1.176,1.337,2.949,2.673c0.88,0.664,2.688,1.897,3.543,2.478
		c0.289,0.195,0.469,0.316,0.469,0.316c1.561,0.949,2.582,1.42,2.858,1.543c0.278-0.126,1.312-0.613,2.896-1.58
		c0,0,0.157-0.107,0.418-0.287c0.696-0.481,2.157-1.494,3.525-2.47c1.88-1.339,2.979-2.652,2.979-2.652
		c0.085-0.103,0.163-0.206,0.242-0.309c1.677-2.178,2.104-4.243,2.204-5.297l-0.014-0.003C25.057,20.352,24.855,20.124,24.767,19.83
		z"/>
	<path class="st0" d="M25.377,15.059L25.319,1.981c-0.007-0.122-0.068-0.413-0.5-0.479c-0.023-0.005-2.643-0.268-11.633-0.268
		h-0.134c-8.17,0-11.04,0.154-11.659,0.27C1.105,1.553,0.926,1.762,0.89,2.014c0,0-0.031,7.807-0.052,13.047
		c1.159-0.051,4.601-0.164,12.362-0.164C20.81,14.898,24.198,15.007,25.377,15.059z"/>
	<path class="st0" d="M15.853,15.483c-1.375-0.02-2.463-0.033-2.85-0.033c-0.363,0-1.371,0.013-2.654,0.032l-0.039,0.072
		c-0.1,0.184-0.279,0.302-0.492,0.368c0.339,0.091,0.588,0.389,0.588,0.746c0,0.346-0.234,0.635-0.576,0.744
		c0.333,0.095,0.576,0.39,0.576,0.742c0,0.346-0.234,0.635-0.576,0.744c0.333,0.095,0.576,0.39,0.576,0.742
		c0,0.435-0.354,0.788-0.788,0.788c-0.345,0-0.634-0.235-0.743-0.576c-0.096,0.332-0.39,0.576-0.743,0.576
		c-0.345,0-0.634-0.235-0.743-0.577c-0.096,0.333-0.39,0.577-0.743,0.577c-0.345,0-0.634-0.235-0.744-0.577
		c-0.095,0.333-0.39,0.577-0.743,0.577c-0.346,0-0.634-0.235-0.744-0.576c-0.095,0.332-0.39,0.576-0.742,0.576
		c-0.346,0-0.634-0.235-0.744-0.577c-0.095,0.333-0.39,0.577-0.743,0.577c-0.354,0-0.648-0.246-0.751-0.6
		c-0.078,0.282-0.303,0.521-0.611,0.583l-0.022,0.004v0.006c0.104,1.037,0.562,3.065,2.197,5.222
		C3.14,25.402,3.39,25.25,3.672,25.25c0.345,0,0.634,0.234,0.743,0.576c0.096-0.333,0.39-0.576,0.743-0.576
		c0.345,0,0.634,0.234,0.743,0.576c0.096-0.332,0.39-0.576,0.743-0.576c0.345,0,0.634,0.234,0.744,0.576
		c0.095-0.333,0.39-0.576,0.743-0.576c0.346,0,0.634,0.234,0.743,0.576c0.096-0.333,0.39-0.576,0.743-0.576
		c0.434,0,0.788,0.353,0.788,0.788c0,0.345-0.234,0.634-0.576,0.743c0.333,0.096,0.576,0.39,0.576,0.743
		c0,0.345-0.234,0.634-0.576,0.743c0.333,0.096,0.576,0.391,0.576,0.743c0,0.345-0.234,0.634-0.576,0.743
		c0.333,0.096,0.576,0.391,0.576,0.742c0,0.332-0.212,0.625-0.517,0.738c0.211,0.144,0.344,0.233,0.344,0.233
		c1.561,0.949,2.582,1.42,2.858,1.543c0.278-0.126,1.312-0.613,2.896-1.58c0,0,0.114-0.078,0.3-0.207
		c-0.294-0.119-0.492-0.404-0.492-0.726c0-0.344,0.235-0.633,0.576-0.742c-0.332-0.096-0.576-0.391-0.576-0.743
		c0-0.345,0.235-0.634,0.576-0.743c-0.332-0.096-0.576-0.391-0.576-0.743c0-0.345,0.235-0.634,0.576-0.743
		c-0.332-0.096-0.576-0.391-0.576-0.743c0-0.435,0.354-0.788,0.789-0.788c0.345,0,0.634,0.234,0.743,0.576
		c0.096-0.333,0.39-0.576,0.742-0.576c0.346,0,0.635,0.234,0.744,0.576c0.095-0.332,0.39-0.576,0.743-0.576
		c0.346,0,0.634,0.234,0.744,0.576c0.096-0.332,0.39-0.576,0.743-0.576c0.345,0,0.634,0.234,0.743,0.576
		c0.096-0.333,0.39-0.576,0.743-0.576c0.282,0,0.531,0.152,0.672,0.393c1.633-2.152,2.054-4.185,2.154-5.228
		c0-0.001,0-0.002,0-0.003l0.001-0.117l0.046-4.658c-0.024,0-5.724-0.098-9.434-0.152C15.93,15.485,15.893,15.484,15.853,15.483z"/>
	<path class="st0" d="M25.319,1.981c-0.007-0.122-0.068-0.413-0.5-0.479c-0.023-0.005-2.643-0.268-11.633-0.268h-0.134
		c-8.17,0-11.04,0.154-11.659,0.27C1.105,1.553,0.926,1.762,0.89,2.014c0,0-0.031,7.807-0.052,13.047
		c1.159-0.051,4.601-0.164,12.362-0.164c7.61,0,10.998,0.109,12.178,0.161L25.319,1.981z"/>
	<path class="st0" d="M3.672,20.43c0.353,0,0.648-0.244,0.742-0.576c0.11,0.341,0.399,0.576,0.744,0.576
		c0.353,0,0.647-0.244,0.743-0.577C6.011,20.194,6.3,20.43,6.645,20.43c0.353,0,0.647-0.244,0.743-0.577
		c0.109,0.342,0.398,0.577,0.743,0.577c0.353,0,0.648-0.244,0.743-0.576c0.109,0.341,0.398,0.576,0.743,0.576
		c0.434,0,0.788-0.354,0.788-0.788c0-0.353-0.244-0.648-0.576-0.742c0.342-0.109,0.576-0.399,0.576-0.744
		c0-0.352-0.244-0.647-0.576-0.742c0.342-0.109,0.576-0.399,0.576-0.744c0-0.357-0.249-0.655-0.588-0.746
		c0.213-0.066,0.392-0.184,0.492-0.368l0.039-0.072c-0.042,0.001-0.081,0.001-0.123,0.002c-3.624,0.054-9.359,0.153-9.381,0.153
		l-0.042,4.66l-0.001,0.12l0.022-0.004c0.309-0.062,0.533-0.301,0.611-0.583c0.103,0.354,0.397,0.6,0.751,0.6
		c0.353,0,0.647-0.244,0.743-0.577C3.038,20.194,3.327,20.43,3.672,20.43z"/>
	<path class="st0" d="M22.53,25.25c-0.353,0-0.647,0.243-0.743,0.576c-0.109-0.342-0.398-0.576-0.743-0.576
		c-0.354,0-0.647,0.244-0.743,0.576c-0.109-0.342-0.398-0.576-0.744-0.576c-0.353,0-0.647,0.244-0.743,0.576
		c-0.109-0.342-0.398-0.576-0.744-0.576c-0.353,0-0.646,0.243-0.742,0.576c-0.109-0.342-0.398-0.576-0.743-0.576
		c-0.435,0-0.789,0.353-0.789,0.788c0,0.353,0.244,0.647,0.576,0.743c-0.341,0.109-0.576,0.398-0.576,0.743
		c0,0.353,0.244,0.647,0.576,0.743c-0.341,0.109-0.576,0.399-0.576,0.743c0,0.353,0.244,0.648,0.576,0.743
		c-0.341,0.109-0.576,0.398-0.576,0.742c0,0.322,0.198,0.607,0.492,0.726c0.038-0.025,0.074-0.051,0.118-0.08
		c0.696-0.481,2.157-1.494,3.525-2.47c1.88-1.339,2.979-2.652,2.979-2.652c0.085-0.103,0.163-0.206,0.242-0.309
		c0.018-0.023,0.033-0.046,0.05-0.068C23.061,25.402,22.812,25.25,22.53,25.25z"/>
	<path class="st0" d="M10.406,26.038c0-0.435-0.354-0.788-0.788-0.788c-0.354,0-0.648,0.243-0.743,0.576
		c-0.109-0.342-0.397-0.576-0.743-0.576c-0.353,0-0.647,0.243-0.743,0.576c-0.11-0.342-0.398-0.576-0.744-0.576
		c-0.354,0-0.648,0.244-0.743,0.576c-0.109-0.342-0.398-0.576-0.743-0.576c-0.353,0-0.648,0.243-0.743,0.576
		c-0.109-0.342-0.398-0.576-0.743-0.576c-0.282,0-0.533,0.152-0.674,0.394c0.016,0.022,0.03,0.042,0.046,0.064
		C3.12,25.805,3.193,25.902,3.272,26c0,0,1.176,1.337,2.949,2.673c0.88,0.664,2.688,1.897,3.543,2.478
		c0.046,0.031,0.084,0.057,0.125,0.084c0.305-0.113,0.517-0.406,0.517-0.738c0-0.352-0.243-0.646-0.576-0.742
		c0.341-0.109,0.576-0.398,0.576-0.743c0-0.352-0.244-0.647-0.576-0.743c0.342-0.109,0.576-0.398,0.576-0.743
		c0-0.354-0.244-0.647-0.576-0.743C10.171,26.672,10.406,26.383,10.406,26.038z"/>
	<path class="st0" d="M25.377,15.059L25.319,1.981c-0.007-0.122-0.068-0.413-0.5-0.479c-0.023-0.005-2.643-0.268-11.633-0.268
		h-0.134c-8.17,0-11.04,0.154-11.659,0.27C1.105,1.553,0.926,1.762,0.89,2.014c0,0-0.031,7.807-0.052,13.047
		c1.159-0.051,4.601-0.164,12.362-0.164C20.81,14.898,24.198,15.007,25.377,15.059z"/>
	<path class="st0" d="M15.853,15.483l0.04,0.073c0.103,0.188,0.285,0.31,0.488,0.366c-0.347,0.107-0.586,0.398-0.586,0.746
		c0,0.354,0.244,0.648,0.576,0.743c-0.341,0.11-0.576,0.398-0.576,0.743c0,0.354,0.244,0.648,0.577,0.743
		c-0.342,0.11-0.577,0.398-0.577,0.743c0,0.435,0.354,0.788,0.789,0.788c0.353,0,0.647-0.244,0.742-0.577
		c0.109,0.342,0.399,0.577,0.743,0.577c0.354,0,0.648-0.244,0.744-0.577c0.109,0.342,0.398,0.577,0.743,0.577
		c0.353,0,0.648-0.244,0.743-0.577c0.11,0.342,0.398,0.577,0.744,0.577c0.353,0,0.647-0.244,0.743-0.576
		c0.109,0.341,0.398,0.576,0.744,0.576c0.353,0,0.647-0.244,0.743-0.577c0.109,0.342,0.398,0.577,0.744,0.577
		c0.361,0,0.663-0.256,0.75-0.6c0.088,0.294,0.29,0.522,0.575,0.582l0.014,0.003c0-0.001,0-0.002,0-0.003l0.001-0.117l0.046-4.658
		c-0.024,0-5.724-0.098-9.434-0.152C15.93,15.485,15.893,15.484,15.853,15.483z"/>
	<path class="st0" d="M3.672,20.43c0.353,0,0.648-0.244,0.742-0.576c0.11,0.341,0.399,0.576,0.744,0.576
		c0.353,0,0.647-0.244,0.743-0.577C6.011,20.194,6.3,20.43,6.645,20.43c0.353,0,0.647-0.244,0.743-0.577
		c0.109,0.342,0.398,0.577,0.743,0.577c0.353,0,0.648-0.244,0.743-0.576c0.109,0.341,0.398,0.576,0.743,0.576
		c0.434,0,0.788-0.354,0.788-0.788c0-0.353-0.244-0.648-0.576-0.742c0.342-0.109,0.576-0.399,0.576-0.744
		c0-0.352-0.244-0.647-0.576-0.742c0.342-0.109,0.576-0.399,0.576-0.744c0-0.357-0.249-0.655-0.588-0.746
		c0.213-0.066,0.392-0.184,0.492-0.368l0.039-0.072c-0.042,0.001-0.081,0.001-0.123,0.002c-3.624,0.054-9.359,0.153-9.381,0.153
		l-0.042,4.66l-0.001,0.12l0.022-0.004c0.309-0.062,0.533-0.301,0.611-0.583c0.103,0.354,0.397,0.6,0.751,0.6
		c0.353,0,0.647-0.244,0.743-0.577C3.038,20.194,3.327,20.43,3.672,20.43z"/>
	<path class="st0" d="M9.127,20.891c-0.018,0.053,0.819,0.521,1.004,1.029c0.086-0.174,0.212-0.318,0.387-0.412
		c0.061-0.031,0.139-0.06,0.223-0.08c-0.056-0.066-0.103-0.137-0.135-0.198c-0.06-0.123-0.087-0.252-0.087-0.384
		c0-0.066,0.009-0.134,0.022-0.201C10.096,20.934,9.145,20.838,9.127,20.891z"/>
	<path class="st0" d="M15.467,21.428c0.084,0.021,0.164,0.049,0.226,0.081c0.174,0.094,0.3,0.238,0.385,0.411
		c0.2-0.493,1.01-0.968,0.993-1.019c-0.017-0.053-0.941,0.056-1.398-0.23c0.01,0.058,0.015,0.116,0.015,0.174
		c0,0.132-0.027,0.263-0.087,0.387C15.571,21.293,15.522,21.361,15.467,21.428z"/>
	<path class="st0" d="M25.377,15.059L25.319,1.981c-0.007-0.122-0.068-0.413-0.5-0.479c-0.023-0.005-2.643-0.268-11.633-0.268
		h-0.134c-8.17,0-11.04,0.154-11.659,0.27C1.105,1.553,0.926,1.762,0.89,2.014c0,0-0.031,7.807-0.052,13.047
		c1.159-0.051,4.601-0.164,12.362-0.164C20.81,14.898,24.198,15.007,25.377,15.059z"/>
	<path class="st0" d="M10.406,26.038c0-0.435-0.354-0.788-0.788-0.788c-0.354,0-0.648,0.243-0.743,0.576
		c-0.109-0.342-0.397-0.576-0.743-0.576c-0.353,0-0.647,0.243-0.743,0.576c-0.11-0.342-0.398-0.576-0.744-0.576
		c-0.354,0-0.648,0.244-0.743,0.576c-0.109-0.342-0.398-0.576-0.743-0.576c-0.353,0-0.648,0.243-0.743,0.576
		c-0.109-0.342-0.398-0.576-0.743-0.576c-0.282,0-0.533,0.152-0.674,0.394c0.016,0.022,0.03,0.042,0.046,0.064
		C3.12,25.805,3.193,25.902,3.272,26c0,0,1.176,1.337,2.949,2.673c0.88,0.664,2.688,1.897,3.543,2.478
		c0.046,0.031,0.084,0.057,0.125,0.084c0.305-0.113,0.517-0.406,0.517-0.738c0-0.352-0.243-0.646-0.576-0.742
		c0.341-0.109,0.576-0.398,0.576-0.743c0-0.352-0.244-0.647-0.576-0.743c0.342-0.109,0.576-0.398,0.576-0.743
		c0-0.354-0.244-0.647-0.576-0.743C10.171,26.672,10.406,26.383,10.406,26.038z"/>
	<path class="st0" d="M13.109,18.014c-0.055,0-0.242,0.937-0.667,1.271c0.192,0.027,0.372,0.099,0.517,0.238
		c0.049,0.048,0.1,0.115,0.145,0.188c0.046-0.073,0.097-0.14,0.147-0.189c0.147-0.142,0.331-0.213,0.527-0.238
		C13.366,18.947,13.165,18.014,13.109,18.014z"/>
	<path class="st0" d="M22.53,25.25c-0.353,0-0.647,0.243-0.743,0.576c-0.109-0.342-0.398-0.576-0.743-0.576
		c-0.354,0-0.647,0.244-0.743,0.576c-0.109-0.342-0.398-0.576-0.744-0.576c-0.353,0-0.647,0.244-0.743,0.576
		c-0.109-0.342-0.398-0.576-0.744-0.576c-0.353,0-0.646,0.243-0.742,0.576c-0.109-0.342-0.398-0.576-0.743-0.576
		c-0.435,0-0.789,0.353-0.789,0.788c0,0.353,0.244,0.647,0.576,0.743c-0.341,0.109-0.576,0.398-0.576,0.743
		c0,0.353,0.244,0.647,0.576,0.743c-0.341,0.109-0.576,0.399-0.576,0.743c0,0.353,0.244,0.648,0.576,0.743
		c-0.341,0.109-0.576,0.398-0.576,0.742c0,0.322,0.198,0.607,0.492,0.726c0.038-0.025,0.074-0.051,0.118-0.08
		c0.696-0.481,2.157-1.494,3.525-2.47c1.88-1.339,2.979-2.652,2.979-2.652c0.085-0.103,0.163-0.206,0.242-0.309
		c0.018-0.023,0.033-0.046,0.05-0.068C23.061,25.402,22.812,25.25,22.53,25.25z"/>
	<path class="st0" d="M15.359,24.156c-0.174,0.094-0.365,0.144-0.566,0.115c-0.068-0.01-0.148-0.033-0.229-0.066
		c0.002,0.03,0.005,0.061,0.005,0.09c0,0.055-0.003,0.106-0.011,0.15c-0.035,0.194-0.137,0.355-0.275,0.49
		c0.531,0.031,1.24,0.662,1.285,0.63C15.611,25.533,15.219,24.678,15.359,24.156z"/>
	<path class="st0" d="M15.853,15.483l0.04,0.073c0.103,0.188,0.285,0.31,0.488,0.366c-0.347,0.107-0.586,0.398-0.586,0.746
		c0,0.354,0.244,0.648,0.576,0.743c-0.341,0.11-0.576,0.398-0.576,0.743c0,0.354,0.244,0.648,0.577,0.743
		c-0.342,0.11-0.577,0.398-0.577,0.743c0,0.435,0.354,0.788,0.789,0.788c0.353,0,0.647-0.244,0.742-0.577
		c0.109,0.342,0.399,0.577,0.743,0.577c0.354,0,0.648-0.244,0.744-0.577c0.109,0.342,0.398,0.577,0.743,0.577
		c0.353,0,0.648-0.244,0.743-0.577c0.11,0.342,0.398,0.577,0.744,0.577c0.353,0,0.647-0.244,0.743-0.576
		c0.109,0.341,0.398,0.576,0.744,0.576c0.353,0,0.647-0.244,0.743-0.577c0.109,0.342,0.398,0.577,0.744,0.577
		c0.361,0,0.663-0.256,0.75-0.6c0.088,0.294,0.29,0.522,0.575,0.582l0.014,0.003c0-0.001,0-0.002,0-0.003l0.001-0.117l0.046-4.658
		c-0.024,0-5.724-0.098-9.434-0.152C15.93,15.485,15.893,15.484,15.853,15.483z"/>
	<path class="st0" d="M11.641,24.295c0-0.028,0.002-0.06,0.005-0.09c-0.082,0.033-0.163,0.057-0.232,0.067
		c-0.198,0.027-0.387-0.021-0.56-0.114c0.136,0.515-0.247,1.385-0.202,1.418c0.045,0.032,0.741-0.609,1.281-0.635
		c-0.142-0.135-0.246-0.3-0.282-0.499C11.644,24.398,11.641,24.349,11.641,24.295z"/>
	<path class="st1" d="M26.195,19.663l-0.081-17.81c-0.031-0.55-0.538-1.055-1.103-1.14c-0.077-0.018-2.752-0.278-11.842-0.278
		h-0.133c-8.222,0-11.24,0.162-11.845,0.275C0.652,0.8,0.097,1.34,0.071,1.892C0.064,1.95,0.005,19.68,0.005,19.68
		C0,19.764-0.058,20.92,0.397,22.431c0.527,1.753,1.671,4.079,4.462,6.265c4.63,3.625,7.943,5.083,8.07,5.138
		c0.076,0.033,0.138,0.046,0.165,0.046c0.027,0,0.088-0.006,0.179-0.048c0.126-0.059,3.413-1.548,8.042-5.136
		c2.79-2.162,3.963-4.479,4.491-6.234C26.265,20.932,26.202,19.755,26.195,19.663z M0.89,2.014c0.037-0.252,0.215-0.461,0.503-0.509
		c0.619-0.116,3.489-0.27,11.659-0.27h0.134c8.99,0,11.609,0.263,11.633,0.268c0.432,0.066,0.493,0.357,0.5,0.479l0.059,13.078
		c-1.18-0.052-4.567-0.161-12.178-0.161c-7.762,0-11.203,0.112-12.362,0.164C0.858,9.821,0.89,2.014,0.89,2.014z M15.673,20.671
		c0.457,0.286,1.38,0.178,1.398,0.23c0.017,0.051-0.792,0.525-0.993,1.019c-0.085-0.173-0.211-0.317-0.385-0.411
		c-0.062-0.032-0.142-0.06-0.226-0.081c0.056-0.066,0.104-0.135,0.134-0.196c0.06-0.124,0.087-0.255,0.087-0.387
		C15.688,20.787,15.683,20.728,15.673,20.671z M13.779,19.284c-0.197,0.025-0.381,0.097-0.527,0.238
		c-0.05,0.049-0.1,0.116-0.147,0.189c-0.045-0.073-0.096-0.139-0.145-0.188c-0.145-0.139-0.324-0.211-0.517-0.238
		c0.425-0.335,0.611-1.271,0.667-1.271C13.165,18.014,13.366,18.947,13.779,19.284z M10.607,21.229
		c0.031,0.062,0.079,0.132,0.135,0.198c-0.084,0.021-0.163,0.049-0.223,0.08c-0.175,0.094-0.301,0.238-0.387,0.412
		c-0.185-0.509-1.022-0.977-1.004-1.029c0.017-0.053,0.968,0.044,1.415-0.246c-0.013,0.067-0.022,0.135-0.022,0.201
		C10.52,20.977,10.547,21.106,10.607,21.229z M2.186,20.43c-0.354,0-0.648-0.246-0.751-0.6c-0.078,0.282-0.303,0.521-0.611,0.583
		l-0.022,0.004l0.001-0.12l0.042-4.66c0.022,0,5.758-0.1,9.381-0.153c0.042-0.001,0.082-0.001,0.123-0.002l-0.039,0.072
		c-0.1,0.184-0.279,0.302-0.492,0.368c0.339,0.091,0.588,0.389,0.588,0.746c0,0.346-0.234,0.635-0.576,0.744
		c0.333,0.095,0.576,0.39,0.576,0.742c0,0.346-0.234,0.635-0.576,0.744c0.333,0.095,0.576,0.39,0.576,0.742
		c0,0.435-0.354,0.788-0.788,0.788c-0.345,0-0.634-0.235-0.743-0.576c-0.096,0.332-0.39,0.576-0.743,0.576
		c-0.345,0-0.634-0.235-0.743-0.577c-0.096,0.333-0.39,0.577-0.743,0.577c-0.345,0-0.634-0.235-0.744-0.577
		c-0.095,0.333-0.39,0.577-0.743,0.577c-0.346,0-0.634-0.235-0.744-0.576c-0.095,0.332-0.39,0.576-0.742,0.576
		c-0.346,0-0.634-0.235-0.744-0.577C2.834,20.185,2.539,20.43,2.186,20.43z M10.406,27.524c0,0.345-0.234,0.634-0.576,0.743
		c0.333,0.096,0.576,0.391,0.576,0.743c0,0.345-0.234,0.634-0.576,0.743c0.333,0.096,0.576,0.391,0.576,0.742
		c0,0.332-0.212,0.625-0.517,0.738c-0.041-0.027-0.079-0.053-0.125-0.084c-0.855-0.58-2.663-1.814-3.543-2.478
		C4.448,27.337,3.272,26,3.272,26c-0.079-0.098-0.153-0.195-0.227-0.292c-0.016-0.022-0.031-0.042-0.046-0.064
		C3.14,25.402,3.39,25.25,3.672,25.25c0.345,0,0.634,0.234,0.743,0.576c0.096-0.333,0.39-0.576,0.743-0.576
		c0.345,0,0.634,0.234,0.743,0.576c0.096-0.332,0.39-0.576,0.743-0.576c0.345,0,0.634,0.234,0.744,0.576
		c0.095-0.333,0.39-0.576,0.743-0.576c0.346,0,0.634,0.234,0.743,0.576c0.096-0.333,0.39-0.576,0.743-0.576
		c0.434,0,0.788,0.353,0.788,0.788c0,0.345-0.234,0.634-0.576,0.743C10.162,26.877,10.406,27.171,10.406,27.524z M10.652,25.576
		c-0.045-0.033,0.337-0.903,0.202-1.418c0.173,0.093,0.361,0.142,0.56,0.114c0.069-0.011,0.15-0.034,0.232-0.067
		c-0.003,0.03-0.005,0.062-0.005,0.09c0,0.054,0.003,0.104,0.011,0.147c0.036,0.199,0.14,0.364,0.282,0.499
		C11.393,24.967,10.697,25.608,10.652,25.576z M13.106,25.091c-0.522-0.005-1.093-0.243-1.172-0.692
		c-0.025-0.143,0.014-0.391,0.073-0.473l0.194-0.225l0.163-0.188l0.066-0.078c0.093-0.104,0.219-0.248,0.206-0.366
		c0,0-0.009-0.063-0.075-0.115c-0.066-0.051-0.133-0.035-0.133-0.035c-0.116,0.024-0.214,0.188-0.285,0.31l-0.053,0.086
		l-0.127,0.213l-0.155,0.254c-0.06,0.082-0.283,0.195-0.427,0.217c-0.451,0.062-0.855-0.406-1.024-0.912
		c-0.157-0.498-0.106-1.114,0.296-1.33c0.128-0.066,0.375-0.106,0.473-0.076l0.274,0.115l0.227,0.098l0.095,0.039
		c0.128,0.056,0.304,0.131,0.412,0.082c0,0,0.062-0.03,0.087-0.105c0.024-0.076-0.008-0.138-0.008-0.138
		c-0.059-0.103-0.245-0.145-0.381-0.176l-0.1-0.024l-0.242-0.055l-0.289-0.068c-0.097-0.031-0.273-0.209-0.338-0.339
		c-0.199-0.41,0.125-0.941,0.551-1.257c0.425-0.303,1.028-0.444,1.357-0.129c0.103,0.102,0.217,0.324,0.218,0.426l-0.024,0.295
		l-0.022,0.249l-0.008,0.101c-0.013,0.139-0.031,0.33,0.049,0.418c0,0,0.04,0.05,0.128,0.05c0.087,0,0.128-0.05,0.128-0.05
		c0.08-0.088,0.062-0.279,0.049-0.418l-0.007-0.101l-0.023-0.248l-0.024-0.296c0.001-0.102,0.115-0.324,0.219-0.426
		c0.328-0.315,0.931-0.174,1.356,0.129l0.009,0.007c0.419,0.311,0.74,0.841,0.541,1.251c-0.064,0.129-0.24,0.307-0.337,0.338
		l-0.285,0.067L14.49,21.57l-0.099,0.024c-0.136,0.03-0.323,0.072-0.382,0.176c0,0-0.032,0.052-0.008,0.138
		c0.025,0.085,0.087,0.105,0.087,0.105c0.108,0.049,0.284-0.026,0.412-0.082l0.095-0.039l0.226-0.097l0.276-0.116
		c0.098-0.03,0.345,0.01,0.473,0.076c0.402,0.216,0.454,0.832,0.293,1.341c-0.166,0.495-0.57,0.964-1.022,0.901
		c-0.143-0.022-0.366-0.134-0.427-0.217l-0.154-0.253l-0.127-0.214l-0.054-0.088c-0.071-0.119-0.169-0.283-0.285-0.308
		c0,0-0.07-0.011-0.133,0.035c-0.062,0.047-0.074,0.115-0.074,0.115c-0.014,0.118,0.113,0.262,0.205,0.366l0.067,0.078l0.164,0.19
		l0.192,0.223c0.059,0.082,0.098,0.33,0.073,0.473C14.21,24.847,13.637,25.086,13.106,25.091z M14.282,24.935
		c0.139-0.135,0.24-0.296,0.275-0.49c0.007-0.045,0.011-0.096,0.011-0.15c0-0.029-0.003-0.06-0.005-0.09
		c0.081,0.033,0.162,0.057,0.229,0.066c0.202,0.028,0.393-0.021,0.566-0.115c-0.14,0.522,0.252,1.377,0.208,1.409
		C15.522,25.598,14.813,24.967,14.282,24.935z M23.152,25.712c-0.079,0.103-0.157,0.205-0.242,0.309c0,0-1.099,1.313-2.979,2.652
		c-1.368,0.976-2.829,1.988-3.525,2.47c-0.044,0.029-0.08,0.055-0.118,0.08c-0.294-0.119-0.492-0.404-0.492-0.726
		c0-0.344,0.235-0.633,0.576-0.742c-0.332-0.096-0.576-0.391-0.576-0.743c0-0.345,0.235-0.634,0.576-0.743
		c-0.332-0.096-0.576-0.391-0.576-0.743c0-0.345,0.235-0.634,0.576-0.743c-0.332-0.096-0.576-0.391-0.576-0.743
		c0-0.435,0.354-0.788,0.789-0.788c0.345,0,0.634,0.234,0.743,0.576c0.096-0.333,0.39-0.576,0.742-0.576
		c0.346,0,0.635,0.234,0.744,0.576c0.095-0.332,0.39-0.576,0.743-0.576c0.346,0,0.634,0.234,0.744,0.576
		c0.096-0.332,0.39-0.576,0.743-0.576c0.345,0,0.634,0.234,0.743,0.576c0.096-0.333,0.39-0.576,0.743-0.576
		c0.282,0,0.531,0.152,0.672,0.393C23.185,25.666,23.169,25.688,23.152,25.712z M25.357,20.295l-0.001,0.117
		c0,0.001,0,0.002,0,0.003l-0.014-0.003c-0.285-0.06-0.487-0.288-0.575-0.582c-0.087,0.344-0.389,0.6-0.75,0.6
		c-0.346,0-0.635-0.235-0.744-0.577c-0.095,0.333-0.39,0.577-0.743,0.577c-0.346,0-0.634-0.235-0.744-0.576
		c-0.095,0.332-0.39,0.576-0.743,0.576c-0.345,0-0.634-0.235-0.744-0.577c-0.095,0.333-0.39,0.577-0.743,0.577
		c-0.345,0-0.634-0.235-0.743-0.577c-0.095,0.333-0.39,0.577-0.744,0.577c-0.345,0-0.634-0.235-0.743-0.577
		c-0.095,0.333-0.39,0.577-0.742,0.577c-0.435,0-0.789-0.354-0.789-0.788c0-0.345,0.235-0.633,0.577-0.743
		c-0.333-0.095-0.577-0.39-0.577-0.743c0-0.345,0.235-0.633,0.576-0.743c-0.332-0.095-0.576-0.39-0.576-0.743
		c0-0.348,0.239-0.639,0.586-0.746c-0.203-0.057-0.385-0.178-0.488-0.366l-0.04-0.073c0.04,0,0.077,0.001,0.117,0.002
		c3.71,0.054,9.409,0.152,9.434,0.152L25.357,20.295z"/>
	<path class="st2" d="M37.15,10.172c-1.138,0-1.82-0.435-2.086-1.328c-0.083-0.263-0.122-0.679-0.122-1.307c0,0,0-6.359,0-6.538
		c-0.161,0-1.758,0-1.918,0c0,0.178,0,5.817,0,5.817c0,1.34,0.093,2.375,0.544,3.066c0.62,0.963,1.828,1.472,3.495,1.472
		c1.747,0,2.926-0.586,3.505-1.743c0.268-0.523,0.446-1.23,0.446-2.987c0,0,0-5.448,0-5.625c-0.156,0-1.439,0-1.596,0
		c0,0.178,0,6.405,0,6.405c0,0.497-0.011,0.999-0.09,1.3C39.093,9.706,38.401,10.172,37.15,10.172z"/>
	<path class="st2" d="M53.106,3.851c-0.16,0-1.714,0-1.874,0c0,0.177,0,7.166,0,7.342c0.16,0,1.714,0,1.874,0
		c0-0.087,0-3.577,0-3.577S53.106,3.942,53.106,3.851z"/>
	<path class="st2" d="M74.148,5.332c0.05-0.202,0.324-1.3,0.358-1.438c-0.225-0.085-0.484-0.16-0.875-0.16
		c-1.203,0-1.704,0.969-1.725,1.013l-0.175-0.039c0,0,0-0.704,0-0.856c-0.159,0-1.655,0-1.815,0c0,0.177,0,7.166,0,7.342
		c0.16,0,1.715,0,1.874,0c0-0.178,0-5.866,0-5.866L71.832,5.3c0.018-0.012,0.429-0.28,1.153-0.28
		C73.559,5.02,73.952,5.21,74.148,5.332z"/>
	<path class="st2" d="M65.371,3.705c-3.154,0-3.495,2.681-3.495,3.833c0,2.504,1.285,3.774,3.818,3.774
		c1.446,0,2.249-0.3,2.473-0.398c-0.043-0.124-0.281-0.803-0.335-0.954c-0.197,0.094-0.72,0.301-1.55,0.301
		c-1.521,0-2.503-0.965-2.503-2.458V7.563c0,0,4.514,0,4.69,0c0-0.008,0-0.025,0-0.025c0-0.85-0.053-1.814-0.443-2.513
		C67.51,4.124,66.667,3.705,65.371,3.705z M66.609,6.704h-2.814V6.612c0-0.13,0-0.526,0.091-0.903
		c0.191-0.8,0.629-1.188,1.339-1.188c0.919,0,1.385,0.594,1.385,1.767V6.704z"/>
	<path class="st2" d="M58.021,9.578l-0.096,0.326l-0.302-1.223c0,0-1.383-4.701-1.421-4.83c-0.121,0-1.799,0-2.021,0
		c0.083,0.235,2.54,7.239,2.582,7.357c0.118,0,1.754,0,1.871,0c0.043-0.116,2.622-7.12,2.71-7.357c-0.218,0-1.505,0-1.622,0
		c-0.17,0.567-1.436,4.798-1.436,4.798L58.021,9.578z"/>
	<path class="st2" d="M52.184,0.618c-0.696,0-1.128,0.387-1.128,1.01c0,0.579,0.436,0.967,1.083,0.967
		c0.696,0,1.128-0.387,1.128-1.01C53.268,1.005,52.833,0.618,52.184,0.618z"/>
	<path class="st2" d="M46.965,3.689c-1.53,0-2.167,0.827-2.174,0.836l-0.167,0.237c0,0,0-0.768,0-0.91c-0.159,0-1.656,0-1.815,0
		c0,0.177,0,7.166,0,7.342c0.16,0,1.714,0,1.874,0c0-0.178,0-6.078,0-6.078l0.049-0.026c0.021-0.01,0.498-0.26,1.175-0.26
		c0.848,0,1.352,0.36,1.5,1.072c0.062,0.288,0.062,0.69,0.062,1.077c0,0,0,4.039,0,4.215c0.16,0,1.729,0,1.889,0
		c0-0.176,0-4.45,0-4.45c0-0.325,0-0.931-0.115-1.449C49.131,4.812,48.687,3.689,46.965,3.689z"/>
	<path class="st2" d="M83.547,3.851c-0.159,0-1.713,0-1.873,0c0,0.177,0,7.166,0,7.342c0.16,0,1.714,0,1.873,0
		c0-0.093,0-3.992,0-3.992S83.547,3.934,83.547,3.851z"/>
	<path class="st2" d="M82.626,0.618c-0.695,0-1.128,0.387-1.128,1.01c0,0.579,0.436,0.967,1.083,0.967
		c0.696,0,1.129-0.387,1.129-1.01C83.71,1.005,83.274,0.618,82.626,0.618z"/>
	<path class="st2" d="M78.761,7.076l-1.073-0.544c-0.602-0.308-0.933-0.478-0.933-1.008c0-0.377,0.218-0.827,1.253-0.827
		c0.788,0,1.375,0.257,1.58,0.359c0.054-0.153,0.303-0.864,0.348-0.994c-0.178-0.075-0.926-0.357-2.191-0.357
		c-1.686,0-2.613,0.73-2.613,2.054c0,1.057,0.532,1.558,1.451,2.066c0,0,1.104,0.602,1.104,0.603
		c0.508,0.284,0.753,0.443,0.753,0.933c0,0.424-0.232,0.929-1.342,0.929c-1.028,0-1.649-0.267-1.858-0.374
		c-0.055,0.154-0.305,0.87-0.35,0.997c0.168,0.079,0.934,0.398,2.429,0.398c1.047,0,2.804-0.293,2.804-2.259
		C80.122,8.147,79.727,7.575,78.761,7.076z"/>
	<path class="st2" d="M88.867,10.217c-1.061,0-1.149-0.721-1.149-1.46V4.8c0,0,2.051,0,2.219,0c0-0.141,0-0.793,0-0.934
		c-0.168,0-2.219,0-2.219,0s0-1.598,0-1.764c-0.149,0-1.029,0-1.164,0c-0.002,0.026-0.006,0.054-0.006,0.057
		c-0.145,0.833-0.749,1.559-1.5,1.805c0,0-0.085,0.03-0.146,0.052c0,0.101,0,0.646,0,0.784c0.15,0,0.941,0,0.941,0v3.826
		c0,0.712,0.048,1.216,0.142,1.499c0.286,0.833,0.905,1.157,2.206,1.157c0.907,0,1.524-0.199,1.783-0.289
		c-0.039-0.131-0.237-0.793-0.282-0.947C89.543,10.11,89.241,10.217,88.867,10.217z"/>
	<path class="st2" d="M94.505,9.605l-0.095,0.329l-0.317-1.268c0,0-1.426-4.688-1.465-4.815c-0.12,0-1.805,0-2.032,0
		c0.092,0.241,2.978,7.801,2.978,7.801l-0.262,0.723c-0.234,0.663-0.541,1.104-1.277,1.104c-0.288,0-0.606-0.093-0.767-0.146
		c-0.027,0.165-0.153,0.901-0.174,1.023c0.141,0.047,0.533,0.159,1.176,0.159c1.241,0,1.913-0.539,2.397-1.923
		c0,0,2.99-8.504,3.074-8.742c-0.215,0-1.505,0-1.624,0c-0.037,0.13-1.363,4.842-1.363,4.842L94.505,9.605z"/>
	<path class="st2" d="M104.358,3.689c-2.316,0-3.7,1.483-3.7,3.965c0,2.362,1.296,3.716,3.554,3.716
		c2.309,0,3.686-1.483,3.686-3.965C107.897,5.044,106.607,3.689,104.358,3.689z M104.299,10.349c-1.502,0-1.694-1.519-1.694-2.841
		c0-1.96,0.498-2.797,1.665-2.797c1.488,0,1.68,1.51,1.68,2.826C105.95,8.928,105.753,10.349,104.299,10.349z"/>
	<path class="st2" d="M109.581,11.194c0.16,0,1.685,0,1.845,0c0-0.179,0-6.394,0-6.394s1.381,0,1.543,0c0-0.141,0-0.793,0-0.934
		c-0.162,0-1.543,0-1.543,0V2.687c0-0.542,0.012-0.945,0.158-1.206c0.186-0.333,0.491-0.489,0.963-0.489
		c0.345,0,0.583,0.091,0.71,0.152c0.049-0.157,0.254-0.806,0.293-0.932C113.393,0.152,112.927,0,112.134,0
		c-1.319,0-2.086,0.489-2.411,1.538c-0.133,0.434-0.143,1.152-0.143,1.61c0,0.045,0,0.718,0,0.718h-0.092c0,0-0.699,0-0.85,0
		c0,0.142,0,0.793,0,0.934c0.15,0,0.941,0,0.941,0S109.581,11.015,109.581,11.194z"/>
	<path class="st2" d="M85.147,15.235c-1.18,0-1.912,0.637-1.912,1.661c0,0.954,0.715,1.57,1.821,1.57
		c1.179,0,1.912-0.637,1.912-1.661C86.968,15.851,86.253,15.235,85.147,15.235z"/>
	<path class="st2" d="M51.243,20.156c-4.996,0-5.535,4.125-5.535,5.899c0,4.763,3.245,5.763,5.968,5.763
		c2.311,0,3.596-0.431,4.021-0.604c-0.043-0.131-0.464-1.393-0.514-1.543c-0.369,0.156-1.196,0.442-2.391,0.442
		c-2.63,0-3.807-1.718-3.807-3.42v-0.389c0,0,7.02,0,7.199,0c-0.001-1.279-0.078-2.877-0.656-3.969
		C54.736,20.849,53.375,20.156,51.243,20.156z M53.045,24.918h-4.083v-0.229c0-0.294,0-0.842,0.095-1.363
		c0.235-1.261,0.875-1.874,1.958-1.874c1.384,0,2.03,0.826,2.03,2.6V24.918z"/>
	<path class="st2" d="M40.633,24.764L40.633,24.764c0.13-0.036,3.18-0.919,3.18-4.541c0-2.931-2.481-3.761-3.241-3.946
		c-0.881-0.21-2.258-0.313-4.207-0.313c-1.472,0-2.767,0.067-3.325,0.101c0,0.171,0,15.391,0,15.572c0.169,0,2.949,0,3.118,0
		c0-0.179,0-6.356,0-6.356h1.101c0,0,4.435,6.279,4.489,6.356c0.088,0,3.411,0,3.745,0c-0.217-0.282-5.188-6.782-5.188-6.782
		L40.633,24.764z M38.722,23.817c-0.38,0.095-0.597,0.121-1.401,0.121l-1.163-0.029V17.59l0.077-0.013c0,0,0.115-0.02,0.114-0.019
		c0.003-0.001,0.282-0.049,1.019-0.049c2.132,0,3.169,1.037,3.169,3.168C40.536,22.659,39.599,23.599,38.722,23.817z"/>
	<path class="st2" d="M62.864,20.134c-2.227,0-3.649,0.422-4.13,0.591c0.052,0.147,0.505,1.447,0.552,1.581
		c0.407-0.17,1.336-0.489,2.644-0.489c0.715,0,1.713,0.105,2.122,1.022c0.139,0.299,0.203,0.721,0.203,1.326v0.733l-0.01,0.235
		l-1.769-0.078c-1.286,0-2.626,0.06-3.626,0.777c-0.836,0.6-1.226,1.453-1.226,2.685c0,2.036,1.326,3.302,3.462,3.302
		c2.034,0,2.832-1.118,2.84-1.129l0.42-0.571c0,0,0,1.358,0,1.518c0.168,0,2.813,0,2.981,0c0-0.179,0-6.879,0-6.879
		c0-0.952-0.021-1.937-0.281-2.607C66.527,20.793,65.159,20.134,62.864,20.134z M64.254,29.92c0,0-0.533,0.353-1.436,0.353
		c-0.767,0-2.053-0.252-2.053-1.939c0-0.307,0.052-1.066,0.527-1.512c0.429-0.405,0.977-0.586,1.778-0.586l0.974,0.023l0.21,0.004
		V29.92z"/>
	<path class="st2" d="M86.717,20.384c-0.169,0-3.062,0-3.232,0c0,0.179,0,11.073,0,11.252c0.169,0,3.062,0,3.232,0
		c0-0.107,0-7.225,0-7.225S86.717,20.456,86.717,20.384z"/>
	<path class="st2" d="M76.991,20.658c-0.026-0.02-0.673-0.457-2.256-0.457c-3.12,0-5.217,2.426-5.217,6.037
		c0,3.546,1.652,5.58,4.533,5.58c2.215,0,2.984-1.242,2.992-1.255l0.427-0.669c0,0,0,1.578,0,1.741c0.169,0,2.95,0,3.118,0
		c0-0.181,0-16.996,0-17.176c-0.169,0-3.062,0-3.232,0c0,0.179,0,6.014,0,6.014v0.454l-0.146-0.108
		C77.21,20.819,76.99,20.656,76.991,20.658z M77.356,21.887v7.675l-0.115,0.066c-0.023,0.013-0.581,0.325-1.504,0.325
		c-1.84,0-2.896-1.445-2.896-3.967c0-2.857,1.104-4.308,3.283-4.308c0.648,0,1.039,0.136,1.083,0.151L77.356,21.887z"/>
	<path class="st2" d="M96.425,20.134c-2.356,0-3.261,1.339-3.271,1.353l-0.253,0.34l-0.169,0.26c0,0,0-1.539,0-1.702
		c-0.169,0-2.949,0-3.118,0c0,0.179,0,11.073,0,11.252c0.169,0,3.063,0,3.231,0c0-0.181,0-9.227,0-9.227l0.121-0.064
		c0.027-0.015,0.658-0.347,1.613-0.347c1.192,0,1.912,0.498,2.139,1.483c0.087,0.433,0.096,1.147,0.096,1.435c0,0,0,6.541,0,6.72
		c0.17,0,3.086,0,3.255,0c0-0.179,0-6.856,0-6.856c0-0.501,0-1.434-0.177-2.229C99.728,21.824,99.061,20.134,96.425,20.134z"/>
	<path class="st2" d="M106.838,20.156c-3.288,0-4.76,1.887-4.76,3.758c0,2.9,2.479,3.311,2.584,3.327l0.845,0.127l-0.794,0.313
		c-0.068,0.027-1.655,0.684-1.655,2.293c0,1.105,0.81,1.482,0.844,1.498l0.782,0.354l-0.854,0.086
		c-0.096,0.009-2.345,0.26-2.345,2.232c0,2.298,2.941,2.642,4.692,2.642c1.415,0,2.584-0.161,3.572-0.49
		c2.857-0.952,3.284-2.885,3.284-3.952c0-2.441-1.898-2.755-3.551-2.755l-1.61,0.027c0,0-0.919,0.018-0.921,0.018
		c-0.467,0-1.437,0-1.437-1.096c0-0.577,0.383-0.907,0.428-0.949l0.081-0.061l1.087,0.074c2.924,0,4.602-1.287,4.602-3.53
		c0-1.123-0.611-1.747-0.638-1.773l-0.403-0.393c0,0,2.307,0,2.477,0c0-0.155,0-1.346,0-1.501c-0.615,0-4.436-0.005-4.458-0.008
		C108.365,20.308,107.691,20.156,106.838,20.156z M107.796,31.932c1.081,0,1.862,0,2.295,0.432c0.204,0.205,0.304,0.482,0.304,0.847
		c0,0.947-0.585,2.075-3.374,2.075c-1.349,0-2.896-0.204-2.896-1.802c0-1.092,1.018-1.516,1.059-1.533l0.043-0.019H107.796z
		 M107.988,26.158l-0.006,0.004c-0.289,0.173-0.628,0.26-1.006,0.26c-1.221,0-1.894-0.891-1.894-2.508
		c0-0.794,0.098-1.77,0.863-2.271c0.303-0.183,0.669-0.283,1.03-0.283c1.22,0,1.893,0.882,1.893,2.484
		C108.869,24.662,108.768,25.663,107.988,26.158z"/>
	<path class="st1" d="M15.054,6.751c0.036-0.092,0.405-1.06,0.409-1.07c0,0,0.023-0.055,0.023-0.106
		c0-0.019-0.003-0.039-0.014-0.054c-0.013-0.02-0.057-0.028-0.131-0.024l-0.007,0c0,0-1.187,0-1.209,0
		c0.014,0.019,0.68,0.919,0.68,0.919S15.043,6.735,15.054,6.751z M16.251,8.575c-0.02-0.242-0.338-0.495-0.526-0.625
		c-0.129-0.09-0.274-0.227-0.361-0.309L15.298,7.58c-0.228-0.199-1.645-2.115-1.919-2.594c-0.077-0.135-0.184-0.153-0.269-0.153
		c-0.085,0-0.192,0.019-0.269,0.153c-0.273,0.478-1.69,2.394-1.919,2.594l-0.065,0.061c-0.087,0.082-0.233,0.219-0.362,0.309
		c-0.325,0.225-0.512,0.447-0.525,0.625C9.965,8.604,9.964,8.631,9.964,8.658c0,0.095,0.015,0.174,0.047,0.244
		c0.021,0.048,0.059,0.114,0.096,0.179c0,0,0.058,0.103,0.065,0.114c0.132-0.136,1.202-1.2,1.327-1.201l0.012,0.003l0.004,0.014
		c-0.002,0.15-1.074,1.478-1.166,1.568c0.006,0.019,0.106,0.317,0.194,0.465c0.083,0.141,0.248,0.279,0.274,0.3
		c0.043-0.069,1.089-1.75,1.191-1.706l0.008,0.009c0.001,0.003,0.001,0.007,0.001,0.012c0,0.147-0.464,1.1-0.862,1.889
		c0,0-0.024,0.049-0.028,0.056c0.019,0.018,0.355,0.332,0.479,0.399c0.128,0.07,0.276,0.113,0.385,0.143
		c0.03-0.113,0.585-2.145,0.68-2.145l0.007,0.002l0.001,0.002c0.009,0.011,0.013,0.05,0.013,0.112c0,0.455-0.205,2.089-0.213,2.155
		c0.008,0.001,0.544,0.143,0.626,0.15c0.083-0.007,0.619-0.149,0.627-0.15c-0.008-0.066-0.212-1.699-0.212-2.153
		c0-0.064,0.004-0.104,0.013-0.114l0.006-0.004h0.003c0.094,0,0.65,2.032,0.68,2.145c0.109-0.03,0.256-0.073,0.385-0.143
		c0.125-0.068,0.46-0.382,0.479-0.399c-0.003-0.007-0.021-0.042-0.021-0.042c-0.4-0.793-0.869-1.753-0.869-1.902
		c0-0.005,0-0.009,0.001-0.012L14.21,8.64c0.101-0.044,1.149,1.636,1.191,1.706c0.027-0.021,0.191-0.16,0.275-0.3
		c0.087-0.148,0.188-0.447,0.194-0.465c-0.092-0.09-1.164-1.418-1.166-1.568l0.004-0.014l0.013-0.003
		c0.124,0.001,1.193,1.065,1.326,1.201c0.007-0.012,0.065-0.114,0.065-0.114c0.037-0.064,0.075-0.131,0.097-0.179
		c0.031-0.07,0.046-0.149,0.046-0.244C16.255,8.631,16.254,8.604,16.251,8.575z M11.165,6.751c0.012-0.016,0.248-0.335,0.248-0.335
		s0.667-0.9,0.68-0.919c-0.022,0-1.209,0-1.209,0l-0.007,0c-0.073-0.003-0.117,0.004-0.13,0.024
		c-0.01,0.015-0.014,0.035-0.014,0.054c0,0.051,0.024,0.106,0.024,0.106C10.759,5.692,11.129,6.66,11.165,6.751z"/>
	<path class="st1" d="M22.628,6.841c0.036-0.092,0.405-1.06,0.409-1.07c0.001-0.001,0.023-0.055,0.023-0.106
		c0-0.019-0.003-0.039-0.014-0.054c-0.013-0.02-0.057-0.028-0.13-0.024L22.91,5.587c0,0-1.187,0-1.209,0
		c0.014,0.018,0.68,0.919,0.68,0.919S22.617,6.825,22.628,6.841z M23.826,8.664c-0.02-0.242-0.338-0.495-0.526-0.625
		c-0.129-0.09-0.274-0.227-0.361-0.309L22.872,7.67c-0.228-0.199-1.645-2.115-1.92-2.594c-0.077-0.135-0.184-0.153-0.268-0.154
		c-0.085,0-0.192,0.019-0.27,0.154c-0.273,0.478-1.69,2.394-1.919,2.594L18.43,7.731c-0.087,0.082-0.233,0.219-0.362,0.309
		c-0.325,0.225-0.512,0.447-0.525,0.625c-0.003,0.029-0.004,0.057-0.004,0.083c0,0.095,0.015,0.173,0.046,0.244
		c0.021,0.048,0.059,0.114,0.096,0.179c0,0,0.058,0.103,0.065,0.115c0.133-0.136,1.202-1.2,1.327-1.201l0.013,0.003l0.004,0.014
		c-0.002,0.15-1.074,1.479-1.166,1.568c0.006,0.018,0.106,0.317,0.194,0.465c0.083,0.141,0.248,0.279,0.274,0.3
		c0.043-0.069,1.089-1.749,1.192-1.705l0.008,0.01c0.001,0.003,0.001,0.007,0.001,0.011c0,0.147-0.464,1.1-0.861,1.889
		c0,0-0.024,0.049-0.028,0.056c0.019,0.018,0.355,0.331,0.479,0.399c0.128,0.07,0.276,0.113,0.386,0.143
		c0.03-0.112,0.585-2.145,0.68-2.145l0.007,0.003l0.001,0.002c0.009,0.011,0.013,0.05,0.013,0.112c0,0.455-0.204,2.089-0.213,2.155
		c0.009,0.001,0.106,0.023,0.106,0.023l0.2,0.045l0.084,0.026c0.076,0.023,0.154,0.049,0.236,0.056
		c0.083-0.007,0.162-0.032,0.238-0.056l0.085-0.026l0.199-0.045c0,0,0.098-0.023,0.105-0.023c-0.008-0.066-0.212-1.699-0.212-2.153
		c0-0.063,0.004-0.103,0.013-0.114l0.006-0.004h0.002c0.094,0,0.65,2.032,0.68,2.145c0.109-0.03,0.256-0.072,0.385-0.143
		c0.125-0.068,0.46-0.382,0.479-0.399c-0.003-0.007-0.021-0.043-0.021-0.043c-0.401-0.793-0.869-1.752-0.869-1.902
		c0-0.004,0.001-0.008,0.002-0.011l0.008-0.01c0.101-0.044,1.149,1.637,1.191,1.705c0.027-0.021,0.191-0.159,0.275-0.3
		c0.087-0.148,0.188-0.447,0.195-0.465c-0.092-0.09-1.164-1.418-1.166-1.568l0.004-0.014l0.013-0.003
		c0.124,0.001,1.193,1.065,1.326,1.201c0.007-0.012,0.064-0.115,0.064-0.115c0.037-0.064,0.075-0.13,0.097-0.179
		c0.031-0.07,0.046-0.148,0.046-0.244C23.829,8.721,23.828,8.693,23.826,8.664z M18.739,6.841c0.012-0.017,0.248-0.335,0.248-0.335
		s0.667-0.901,0.68-0.919c-0.022,0-1.209,0-1.209,0L18.45,5.587c-0.073-0.003-0.117,0.004-0.13,0.024
		c-0.01,0.015-0.014,0.035-0.014,0.054c0,0.051,0.024,0.105,0.024,0.105C18.334,5.781,18.703,6.749,18.739,6.841z"/>
	<path class="st1" d="M7.45,6.841c0.036-0.092,0.405-1.06,0.409-1.07C7.859,5.77,7.882,5.716,7.882,5.665
		c0-0.019-0.003-0.039-0.014-0.054c-0.013-0.02-0.057-0.028-0.13-0.024L7.731,5.587c0,0-1.187,0-1.209,0
		c0.014,0.018,0.68,0.919,0.68,0.919S7.438,6.825,7.45,6.841z M8.647,8.664c-0.02-0.242-0.338-0.495-0.526-0.625
		C7.992,7.95,7.846,7.813,7.759,7.731L7.693,7.67C7.465,7.471,6.048,5.555,5.774,5.077C5.697,4.942,5.59,4.923,5.505,4.923
		c-0.085,0-0.192,0.019-0.27,0.154C4.962,5.554,3.545,7.47,3.317,7.67L3.251,7.731C3.165,7.813,3.019,7.95,2.889,8.039
		C2.564,8.264,2.377,8.487,2.364,8.664C2.361,8.693,2.36,8.721,2.36,8.747c0,0.095,0.015,0.173,0.046,0.244
		C2.427,9.039,2.465,9.105,2.502,9.17c0,0,0.058,0.103,0.065,0.115C2.7,9.148,3.77,8.084,3.894,8.083l0.012,0.003l0.004,0.014
		C3.908,8.251,2.836,9.58,2.745,9.669c0.006,0.018,0.106,0.317,0.194,0.465c0.083,0.141,0.248,0.279,0.274,0.3
		c0.043-0.069,1.089-1.749,1.192-1.705l0.008,0.01C4.415,8.742,4.415,8.746,4.415,8.75c0,0.147-0.464,1.1-0.862,1.889
		c0,0-0.024,0.049-0.028,0.056c0.02,0.018,0.355,0.331,0.48,0.399c0.128,0.07,0.276,0.113,0.385,0.143
		c0.03-0.112,0.585-2.145,0.68-2.145l0.007,0.003l0.002,0.002c0.009,0.011,0.013,0.05,0.013,0.112c0,0.455-0.205,2.089-0.213,2.155
		c0.008,0.001,0.544,0.144,0.626,0.15c0.083-0.007,0.619-0.149,0.627-0.15C6.124,11.297,5.919,9.664,5.919,9.21
		c0-0.063,0.004-0.103,0.013-0.114l0.006-0.004h0.003c0.094,0,0.65,2.032,0.68,2.145c0.109-0.03,0.256-0.072,0.385-0.143
		c0.124-0.068,0.46-0.382,0.479-0.399c-0.003-0.007-0.89-1.795-0.89-1.945c0-0.004,0.001-0.008,0.001-0.011l0.009-0.01
		c0.101-0.044,1.149,1.637,1.191,1.705c0.027-0.021,0.191-0.159,0.275-0.3c0.087-0.148,0.188-0.447,0.194-0.465
		C8.174,9.58,7.102,8.251,7.1,8.101l0.004-0.014l0.013-0.003C7.241,8.084,8.31,9.148,8.443,9.285C8.45,9.273,8.507,9.17,8.507,9.17
		c0.037-0.064,0.075-0.13,0.097-0.179C8.635,8.921,8.65,8.843,8.65,8.747C8.65,8.721,8.649,8.693,8.647,8.664z M3.56,6.841
		c0.012-0.017,0.248-0.335,0.248-0.335s0.667-0.901,0.68-0.919c-0.022,0-1.209,0-1.209,0L3.272,5.587
		c-0.073-0.003-0.117,0.004-0.13,0.024c-0.01,0.015-0.014,0.035-0.014,0.054c0,0.051,0.023,0.105,0.023,0.105
		C3.155,5.781,3.524,6.749,3.56,6.841z"/>
	<polygon class="st1" points="14.976,19.635 14.978,19.636 14.981,19.639 	"/>
	<ellipse class="st1" cx="13.111" cy="22.189" rx="0.634" ry="0.628"/>
	<g>
		<path class="st1" d="M40.041,50.93l-0.23-6.426c0,0-0.023,0.289-0.243,0.98l-1.752,5.445h-1.408l-1.661-5.41
			c-0.208-0.67-0.242-1.016-0.242-1.016l-0.312,6.426h-1.211l0.484-8.145h1.846l1.766,5.49c0.207,0.646,0.207,0.842,0.207,0.877
			c0-0.057,0.035-0.289,0.23-0.877l1.822-5.49h1.893l0.369,8.145H40.041z"/>
		<path class="st1" d="M51.904,50.93l-0.796-2.516h-2.607L47.74,50.93h-1.442l2.85-8.156h1.73l2.747,8.156H51.904z M50.047,44.988
			c-0.197-0.623-0.254-0.889-0.254-0.945l-0.254,0.898l-0.75,2.492h2.03L50.047,44.988z"/>
		<path class="st1" d="M58.485,50.93v-8.145h1.648v7.094h2.85v1.051H58.485z"/>
		<path class="st1" d="M72.727,50.93l-0.797-2.516h-2.607l-0.76,2.516H67.12l2.85-8.156h1.73l2.746,8.156H72.727z M70.87,44.988
			c-0.197-0.623-0.254-0.889-0.254-0.945l-0.254,0.898l-0.75,2.492h2.031L70.87,44.988z"/>
		<path class="st1" d="M81.95,47.676v3.254h-1.65v-3.08L77.6,42.785h1.836l1.855,3.783l1.813-3.783h1.476L81.95,47.676z"/>
		<path class="st1" d="M90.989,51.021c-1.488,0-2.33-0.369-2.33-0.369l0.369-1.061c0,0,0.623,0.369,1.695,0.369
			c0.957,0,1.592-0.277,1.592-1.107c0-0.496-0.254-0.75-0.818-1.098l-1.201-0.715c-0.691-0.414-1.406-0.934-1.406-2.065
			c0-1.488,0.969-2.283,2.676-2.283c1.42,0,2.088,0.322,2.088,0.322l-0.357,1.061c0,0-0.531-0.322-1.535-0.322
			c-0.496,0-1.35,0.092-1.35,0.945c0,0.508,0.348,0.738,1.004,1.119l1.016,0.588c0.957,0.555,1.441,1.131,1.441,2.182
			C93.872,50.109,92.858,51.021,90.989,51.021z"/>
		<path class="st1" d="M99.127,50.93v-8.145h1.65v4.667v3.478H99.127z"/>
		<path class="st1" d="M111.225,50.93l-0.797-2.516h-2.607l-0.76,2.516h-1.443l2.85-8.156h1.73l2.746,8.156H111.225z
			 M109.368,44.988c-0.197-0.623-0.254-0.889-0.254-0.945l-0.254,0.898l-0.75,2.492h2.031L109.368,44.988z"/>
	</g>
</g>
</svg>
