<?xml version="1.0" encoding="utf-8"?>
<!-- Generator: Adobe Illustrator 19.1.0, SVG Export Plug-In . SVG Version: 6.00 Build 0)  -->
<svg version="1.1" id="Layer_1" xmlns="http://www.w3.org/2000/svg" xmlns:xlink="http://www.w3.org/1999/xlink" x="0px" y="0px"
	 viewBox="0 0 180 60" style="enable-background:new 0 0 180 60;" xml:space="preserve">
<style type="text/css">
	.st0{fill:#FFFFFF;}
	.st1{fill:#272C2D;}
</style>
<path class="st0" d="M101.768,17.096L101.768,17.096c-0.094-0.001-0.188,0.003-0.283,0.011c-0.808,0.058-1.553,0.361-2.094,0.852
	c-0.534,0.484-0.806,1.094-0.768,1.712c0.08,1.291,1.47,2.049,3.153,1.928c1.661-0.12,2.767-1.075,2.685-2.368
	C104.383,18.015,103.327,17.096,101.768,17.096 M103.356,10.063L103.356,10.063c-0.438-1.545-1.146-2.002-2.251-2.002
	c-0.118,0-0.238,0.016-0.353,0.048c-0.479,0.136-0.857,0.536-1.069,1.127c-0.216,0.601-0.23,1.228-0.042,1.94
	c0.334,1.273,1.24,2.199,2.155,2.199c0.118,0,0.238-0.017,0.353-0.048C103.144,13.046,103.771,11.521,103.356,10.063
	 M113.233,14.986h-2.758v2.758h-1.746v-2.758h-2.758V13.24h2.758v-2.755h1.746v2.757h2.758V14.986z M106.141,7.007
	c0,0.473-0.849,0.563-1.428,0.644c-0.197,0.026-0.589,0.066-0.703,0.123c1.071,0.571,1.244,1.472,1.244,2.81
	c0,1.521-0.597,2.328-1.23,2.894c-0.391,0.35-0.7,0.628-0.7,0.995c0,0.36,0.422,0.73,0.913,1.162
	c0.803,0.705,1.902,1.671,1.902,3.294c0,1.677-0.722,2.877-2.144,3.567l-0.001,0.002c-1.098,0.533-2.279,0.589-2.734,0.589
	c-0.088,0-0.137-0.003-0.144-0.003h-0.089c-0.713,0-4.262-0.163-4.262-3.395c0-3.176,3.863-3.422,5.047-3.422h0.033
	c-0.682-0.913-0.54-1.834-0.54-1.834c-0.061,0.004-0.148,0.007-0.257,0.007c-0.448,0-1.308-0.07-2.046-0.549
	c-0.903-0.58-1.362-1.571-1.362-2.944c0-3.876,4.231-4.031,4.274-4.034h4.226V7.007z M120,0.001H90V30h30V0.001z"/>
<path class="st0" d="M132.297,18.283l6.747-3.497l-6.749-3.521L132.297,18.283z M145.523,15.796c0,1.703-0.21,3.406-0.21,3.406
	s-0.205,1.45-0.836,2.09c-0.801,0.838-1.698,0.842-2.109,0.892c-2.945,0.212-7.368,0.219-7.368,0.219s-5.472-0.05-7.156-0.211
	c-0.468-0.088-1.52-0.062-2.32-0.899c-0.631-0.64-0.837-2.09-0.837-2.09s-0.21-1.703-0.21-3.406V14.2c0-1.703,0.21-3.406,0.21-3.406
	s0.206-1.45,0.837-2.089c0.801-0.839,1.697-0.843,2.109-0.892c2.945-0.213,7.362-0.213,7.362-0.213h0.01c0,0,4.418,0,7.363,0.213
	c0.411,0.049,1.309,0.053,2.109,0.892c0.631,0.639,0.836,2.089,0.836,2.089s0.21,1.703,0.21,3.406V15.796z M150,0.001h-30V30h30
	V0.001z"/>
<path class="st0" d="M169.939,8.126v1.474c0,0.27,0.222,0.491,0.491,0.491h1.472c0.271,0,0.491-0.22,0.491-0.491V8.126
	c0-0.27-0.22-0.491-0.491-0.491h-1.472C170.161,7.635,169.939,7.855,169.939,8.126 M173.799,21.049c0,1.519-1.232,2.751-2.75,2.751
	h-12.098c-1.521,0-2.75-1.232-2.75-2.751v-7.071h3.579c-0.066,0.331-0.101,0.673-0.101,1.023c0,2.937,2.382,5.319,5.32,5.319
	c2.938,0,5.32-2.382,5.32-5.319c0-0.351-0.035-0.692-0.1-1.023h3.578V21.049z M165,11.727c1.808,0,3.273,1.465,3.273,3.274
	c0,1.808-1.466,3.273-3.273,3.273s-3.274-1.465-3.274-3.273C161.726,13.192,163.192,11.727,165,11.727 M173.799,11.931h-4.455
	c-0.963-1.36-2.549-2.25-4.344-2.25s-3.382,0.89-4.345,2.25h-4.454V8.953c0-1.518,1.23-2.75,2.75-2.75h12.098
	c1.519,0,2.75,1.231,2.75,2.75V11.931z M180,0h-30V30h30V0z"/>
<path class="st0" d="M82.938,21.73h-3.258v-5.812c0-1.351-0.473-2.272-1.651-2.272c-0.9,0-1.436,0.623-1.674,1.223
	c-0.086,0.212-0.106,0.514-0.106,0.812v6.047h-3.261v-7.142c0-1.308-0.042-2.403-0.086-3.345h2.83l0.151,1.456h0.063
	c0.43-0.685,1.48-1.693,3.239-1.693c2.144,0,3.752,1.435,3.752,4.524V21.73L82.938,21.73z M71.145,8.325
	c0.002,0.901-0.664,1.631-1.757,1.631c-1.029,0-1.695-0.731-1.695-1.631c0-0.923,0.685-1.63,1.737-1.63
	C70.481,6.695,71.125,7.402,71.145,8.325 M67.777,11.243h3.259V21.73h-3.259V11.243z M90,0.001H60V30h30V0.001z"/>
<path class="st0" d="M52.514,10.04c0.775-0.094,1.513-0.298,2.2-0.604c-0.513,0.768-1.165,1.442-1.912,1.983l-0.005,0.001
	c0.008,0.165,0.013,0.331,0.013,0.497c0,5.06-3.854,10.896-10.899,10.896c-2.162,0-4.178-0.632-5.872-1.722
	c0.3,0.037,0.605,0.053,0.914,0.053c1.796,0,3.447-0.611,4.759-1.641c-1.675-0.03-3.092-1.139-3.58-2.658
	c0.233,0.045,0.474,0.068,0.72,0.068c0.351,0,0.688-0.047,1.009-0.134c-1.75-0.353-3.073-1.9-3.073-3.756
	c0-0.017,0-0.033,0.003-0.047c0.517,0.286,1.108,0.459,1.734,0.478c-1.025-0.686-1.701-1.857-1.701-3.188
	c0-0.702,0.188-1.361,0.519-1.927c1.889,2.319,4.713,3.845,7.896,4.004c-0.064-0.28-0.099-0.571-0.099-0.874
	c0-2.114,1.716-3.831,3.831-3.831c1.102,0,2.098,0.463,2.796,1.209c0.874-0.17,1.694-0.489,2.434-0.929
	C53.911,8.814,53.305,9.565,52.514,10.04 M60,0.001H30V30h30V0.001z"/>
<path class="st0" d="M19.74,15.175h-3.666v9.066h-3.463v-9.066H9.474v-3.018h3.138v-1.775c0-2.548,1.769-4.62,4.194-4.62h2.933
	v3.212h-2.933c-0.346,0-0.731,0.457-0.731,1.064v2.117h3.666V15.175z M30,0.001H0V30h30V0.001z"/>
<path class="st1" d="M101.768,47.095L101.768,47.095c-0.094-0.001-0.188,0.003-0.283,0.011c-0.808,0.058-1.553,0.361-2.094,0.852
	c-0.534,0.484-0.806,1.094-0.768,1.712c0.08,1.291,1.47,2.049,3.153,1.928c1.661-0.12,2.767-1.075,2.685-2.368
	C104.383,48.014,103.327,47.095,101.768,47.095 M103.356,40.062L103.356,40.062c-0.438-1.545-1.146-2.002-2.251-2.002
	c-0.118,0-0.238,0.016-0.353,0.048c-0.479,0.136-0.857,0.536-1.069,1.127c-0.216,0.601-0.23,1.228-0.042,1.94
	c0.334,1.273,1.24,2.199,2.155,2.199c0.118,0,0.238-0.017,0.353-0.048C103.144,43.045,103.771,41.52,103.356,40.062 M113.233,44.985
	h-2.758v2.758h-1.746v-2.758h-2.758v-1.746h2.758v-2.755h1.746v2.757h2.758V44.985z M106.141,37.006
	c0,0.473-0.849,0.563-1.428,0.644c-0.197,0.026-0.589,0.066-0.703,0.123c1.071,0.571,1.244,1.472,1.244,2.81
	c0,1.521-0.597,2.328-1.23,2.894c-0.391,0.35-0.7,0.628-0.7,0.995c0,0.36,0.422,0.73,0.913,1.162
	c0.803,0.705,1.902,1.671,1.902,3.294c0,1.677-0.722,2.877-2.144,3.567l-0.001,0.002c-1.098,0.533-2.279,0.589-2.734,0.589
	c-0.088,0-0.137-0.003-0.144-0.003h-0.089c-0.713,0-4.262-0.163-4.262-3.395c0-3.176,3.863-3.422,5.047-3.422h0.033
	c-0.682-0.913-0.54-1.834-0.54-1.834c-0.061,0.004-0.148,0.007-0.257,0.007c-0.448,0-1.308-0.07-2.046-0.549
	c-0.903-0.58-1.362-1.571-1.362-2.944c0-3.876,4.231-4.031,4.274-4.034h4.226V37.006z M120,30H90V60h30V30z"/>
<path class="st1" d="M132.297,48.283l6.747-3.497l-6.749-3.521L132.297,48.283z M145.523,45.795c0,1.703-0.21,3.406-0.21,3.406
	s-0.205,1.45-0.836,2.09c-0.801,0.838-1.698,0.842-2.109,0.892c-2.945,0.212-7.368,0.219-7.368,0.219s-5.472-0.05-7.156-0.211
	c-0.468-0.088-1.52-0.062-2.32-0.899c-0.631-0.64-0.837-2.09-0.837-2.09s-0.21-1.703-0.21-3.406v-1.597
	c0-1.703,0.21-3.406,0.21-3.406s0.206-1.45,0.837-2.089c0.801-0.839,1.697-0.843,2.109-0.892c2.945-0.213,7.362-0.213,7.362-0.213
	h0.01c0,0,4.418,0,7.363,0.213c0.411,0.049,1.309,0.053,2.109,0.892c0.631,0.639,0.836,2.089,0.836,2.089s0.21,1.703,0.21,3.406
	V45.795z M150,30h-30V60h30V30z"/>
<path class="st1" d="M169.939,38.125v1.474c0,0.27,0.222,0.491,0.491,0.491h1.472c0.271,0,0.491-0.22,0.491-0.491v-1.474
	c0-0.27-0.22-0.491-0.491-0.491h-1.472C170.161,37.634,169.939,37.854,169.939,38.125 M173.799,51.048
	c0,1.519-1.232,2.751-2.75,2.751h-12.098c-1.521,0-2.75-1.232-2.75-2.751v-7.071h3.579c-0.066,0.331-0.101,0.673-0.101,1.023
	c0,2.937,2.382,5.319,5.32,5.319c2.938,0,5.32-2.382,5.32-5.319c0-0.351-0.035-0.692-0.1-1.023h3.578V51.048z M165,41.726
	c1.808,0,3.273,1.465,3.273,3.274c0,1.808-1.466,3.273-3.273,3.273s-3.274-1.465-3.274-3.273
	C161.726,43.191,163.192,41.726,165,41.726 M173.799,41.93h-4.455c-0.963-1.36-2.549-2.25-4.344-2.25s-3.382,0.89-4.345,2.25h-4.454
	v-2.978c0-1.518,1.23-2.75,2.75-2.75h12.098c1.519,0,2.75,1.231,2.75,2.75V41.93z M180,30h-30v29.999h30V30z"/>
<path class="st1" d="M82.938,51.729h-3.258v-5.812c0-1.351-0.473-2.272-1.651-2.272c-0.9,0-1.436,0.623-1.674,1.223
	c-0.086,0.212-0.106,0.514-0.106,0.812v6.047h-3.261v-7.142c0-1.308-0.042-2.403-0.086-3.345h2.83l0.151,1.456h0.063
	c0.43-0.685,1.48-1.693,3.239-1.693c2.144,0,3.752,1.435,3.752,4.524V51.729L82.938,51.729z M71.145,38.324
	c0.002,0.901-0.664,1.631-1.757,1.631c-1.029,0-1.695-0.731-1.695-1.631c0-0.923,0.685-1.63,1.737-1.63
	C70.481,36.694,71.125,37.401,71.145,38.324 M67.777,41.242h3.259v10.487h-3.259V41.242z M90,30H60V60h30V30z"/>
<path class="st1" d="M52.514,40.039c0.775-0.094,1.513-0.298,2.2-0.604c-0.513,0.768-1.165,1.442-1.912,1.983l-0.005,0.001
	c0.008,0.165,0.013,0.331,0.013,0.497c0,5.06-3.854,10.896-10.899,10.896c-2.162,0-4.178-0.632-5.872-1.722
	c0.3,0.037,0.605,0.053,0.914,0.053c1.796,0,3.447-0.611,4.759-1.641c-1.675-0.03-3.092-1.139-3.58-2.658
	c0.233,0.045,0.474,0.068,0.72,0.068c0.351,0,0.688-0.047,1.009-0.134c-1.75-0.353-3.073-1.9-3.073-3.756
	c0-0.017,0-0.033,0.003-0.047c0.517,0.286,1.108,0.459,1.734,0.478c-1.025-0.686-1.701-1.857-1.701-3.188
	c0-0.702,0.188-1.361,0.519-1.927c1.889,2.319,4.713,3.845,7.896,4.004c-0.064-0.28-0.099-0.571-0.099-0.874
	c0-2.114,1.716-3.831,3.831-3.831c1.102,0,2.098,0.463,2.796,1.209c0.874-0.17,1.694-0.489,2.434-0.929
	C53.911,38.813,53.305,39.564,52.514,40.039 M60,30H30V60h30V30z"/>
<path class="st1" d="M19.74,45.174h-3.666v9.066h-3.463v-9.066H9.474v-3.018h3.138v-1.775c0-2.548,1.769-4.62,4.194-4.62h2.933
	v3.212h-2.933c-0.346,0-0.731,0.457-0.731,1.064v2.117h3.666V45.174z M30,30H0V60h30V30z"/>
</svg>
